<?xml version="1.0" encoding="utf-8"?>
<!-- Generator: Adobe Illustrator 23.0.3, SVG Export Plug-In . SVG Version: 6.00 Build 0)  -->
<svg version="1.1" id="Layer_1" xmlns="http://www.w3.org/2000/svg" xmlns:xlink="http://www.w3.org/1999/xlink" x="0px" y="0px"
	 viewBox="0 0 512 512" style="enable-background:new 0 0 512 512;" xml:space="preserve">
<style type="text/css">
	.st0{fill:#E0477B;}
</style>
<path d="M305.5,183.5c-1.9-2.7-3.4-4.9-4.9-7.1c20.1-21.5,53.4-23.8,75.9-6.1c26.1,20.7,28.6,58.7,6.1,82.2
	c-22.8,23.7-60.8,22.9-82.7-2c1.7-2.5,3.5-5,5.4-7.6c6.9,18.5,18.6,21.7,36.4,17.7c17.8-4.1,29.9-15.2,35.3-32.5
	c5.5-17.7,2-33.9-11-47.6c-10.3-10.8-22.7-16.1-37.9-15.5c-10.4,0.4-17,5.2-21,14.4C306.7,180.6,306.2,181.8,305.5,183.5z"/>
<path d="M230.4,168.7c-2.7,1.8-4.8,3.3-7,4.8c-21.2-16.8-26.9-50.4-7.5-75.7c18.7-24.3,55.7-28.4,78.7-9.3
	c28.7,23.8,26.3,60.5,3.5,85c-2.2-1.5-4.5-3-6.9-4.5c0.3-0.4,0.4-0.9,0.6-0.9c16.6-6.2,20.6-16.2,15.4-37c-6-24.2-26-38-51.4-36.1
	c-21.5,1.6-40.4,18-43.6,40.9C210.2,151,211.6,160.9,230.4,168.7z"/>
<path d="M216,243.2c1.8,2.5,3.2,4.6,4.6,6.6c-8,14-32.8,22.3-53.7,18.1c-22.7-4.5-40.2-24.2-43.4-48.7
	c-2.8-22.4,10.2-45.5,32.7-55.8c22.2-10.2,45.3-5.4,64.9,12.4c-1.5,2.3-3.1,4.6-4.6,6.9c-0.4-0.1-0.8-0.1-0.9-0.3
	c-5.8-17.9-17-20.4-36.1-16.3c-20.8,4.4-35.9,22.4-37.5,41.9c-1.8,22.4,9.1,41,29.7,50.1c8,3.5,16.6,4.4,25.2,3.3
	c6.6-0.9,11.4-4.7,14.9-10.2C213.3,248.9,214.4,246.3,216,243.2z"/>
<path d="M297.7,251.1c27.8,28.7,21.9,70.7-9.9,89.2c-19.1,11.1-39,11.2-57.8-0.7c-19.1-12-27.9-29.9-26-52.6
	c1-11.6,6-21.6,13.4-30.4c5.3-6.4,5.3-6.3,11.8-0.5c-0.1,0.1-0.1,0.4-0.2,0.4c-16.1,6.4-19.5,15.1-16.5,34.1
	c4.1,25.4,29.1,42.4,53.6,39.1c26.9-3.6,45.2-26.9,42.6-53.4c-0.9-9.7-5-14.4-18.1-20C293.2,254.4,295.5,252.8,297.7,251.1z"/>
<path class="st0" d="M195.3,236.8c1.2-6.2,2.6-12.3,3.5-18.6c0.4-3,1.9-3.3,4.4-3.3c27.6,0.1,55.1,0.2,82.7,0.2
	c13.4,0,26.9,0,41.1,0c1.3,7.3,2.6,14.7,3.9,22.1c-0.3,0.1-0.5,0.2-0.8,0.3c-0.6-1.1-1.3-2.2-1.8-3.4c-3.7-9.1-10.4-15.1-20.1-16.4
	c-7.6-1-15.3-0.9-23-0.6c-4.6,0.2-7,3.3-7,8.2c0.1,20.2,0.1,40.3,0.2,60.5c0,4.8,2.6,7.8,7.2,9.2c1.2,0.4,2.4,0.7,3.5,1.7
	c-17.4,0-34.8,0-52.2,0c-0.1-0.2-0.1-0.4-0.2-0.6c1.3-0.4,2.6-0.8,3.8-1.2c3.9-1.5,6.8-4.1,6.8-8.5c0.2-20.7,0.2-41.3,0.3-62
	c0-4.3-2.2-7.1-6.1-7.2c-8.3-0.3-16.8-0.6-25,0.5c-9.2,1.2-15.1,7.4-18.8,15.8c-0.5,1.2-1.1,2.3-1.7,3.5
	C195.8,236.9,195.5,236.9,195.3,236.8z M264.1,220.2c-5.2,6.5-5.2,67.2-0.4,73c0.8-3,1.9-5.2,1.9-7.5c0.1-19.3,0.1-38.6,0-57.9
	C265.6,225.2,264.6,222.7,264.1,220.2z"/>
<path class="st0" d="M330.9,187.7c-1.2,7.7-2,14-3.3,20.2c-0.3,1.4-2.4,3.4-3.7,3.4c-41-0.1-82-0.4-123-0.7c-0.3,0-0.6-0.2-1.4-0.5
	c-1.2-6.4-2.5-13.2-3.7-19.9c0.2-0.1,0.5-0.2,0.7-0.3c1.1,2.1,2.2,4.3,3.4,6.3c4.5,7.9,11.3,12.3,20.4,12.8c6.7,0.3,13.4,0.2,20.1,0
	c4.6-0.1,7.5-2.3,7.5-7.5c0.1-20.7,0.4-41.4,0.3-62c0-6-4.8-8.3-10.8-10.2c18.1,0,35.2,0,52.3,0c0,0.2,0,0.6-0.1,0.7
	c-10.1,3.6-10.8,4.4-10.9,15.2c-0.2,17.7-0.3,35.3-0.3,53c0,9,1.1,10.5,10,10.8c8.3,0.3,16.8-0.2,24.9-1.9
	C320.9,205.5,322.9,202.1,330.9,187.7z M263.6,132.6c-5.1,6.7-4.8,68.1,0,73.4c0.6-2.4,1.6-4.4,1.7-6.5c0.2-20.2,0.3-40.3,0.2-60.5
	C265.5,137.1,264.4,135.2,263.6,132.6z"/>
<path d="M81.7,444.4c0,0.7-0.4,1.1-1.2,1.2c-0.7,0-1-0.4-1-1.2c-0.2-1.7-1-2.5-2.3-2.5h-0.7c-0.7,0.2-1.5,0.5-2.6,1.2l-2.6,1.7
	c-5,2.5-10.3,3.7-15.9,3.7c-9.5,0-17.6-2.7-24.2-8.1c-3.4-2.8-6-6-7.7-9.6c-1.7-3.6-2.6-7.7-2.6-12.4v-3.2c0-8.7,2.6-16.5,7.9-23.4
	c5.3-6.9,12.3-11,21-12.4c1.4,0,2.4-0.2,3.1-0.5h3.4c4.5,0,8.8,0.7,12.7,2.2l6.7,2.9c0.5,0,1.1-0.5,1.6-1.6l0.8-1.9l0.6-0.2
	c0.5,0.3,0.8,0.6,0.9,0.8l0.3,1.4l0.5,14.6v1.3c0,1-0.3,1.5-1,1.5c-0.4,0-1-1.3-1.9-3.8l-1-3c-1.6-3.6-4.2-6.6-7.7-8.8
	c-3.5-2.3-7.4-3.4-11.5-3.4c-6.3,0-11.7,2.4-16.2,7.1c-5.2,5.6-7.9,13.5-7.9,23.5v3.6c0,5.6,0.8,10.7,2.4,15.2
	c1.6,4.5,4.3,8.3,8.2,11.4c3.9,3.1,8.3,4.6,13.2,4.6c2.9,0,5.6-0.5,8.3-1.6c2.7-1.1,5-2.5,6.8-4.4c0.8-0.8,1.3-1.4,1.6-1.8
	c0.6-0.9,1.1-1.6,1.4-2.1l2.3-5.4l2.3-6.8l0.3-0.5h0.3c0.4,0.2,0.6,0.3,0.7,0.5l0.3,0.6V444.4z"/>
<path d="M105.4,390.9v-0.5c0-3-0.6-5.2-1.7-6.4c-1.1-1.3-3.1-1.9-6.1-1.9c-1.2,0-1.8-0.3-1.9-1c0.2-0.3,0.5-0.5,0.9-0.5l2.2-0.3
	l12.5,0.3h0.7h9c2.5,0,3.9,0,4.2,0v0.7c-0.3,0.5-0.5,0.7-0.7,0.8h-1.2c-2.8,0-4.8,0.7-6,2c-1.2,1.3-1.8,3.4-1.8,6.4v0.5v19.9h36
	v-20.2c0-3.2-0.5-5.2-1.6-6.1s-3.3-1.7-6.7-2.3c-0.9,0-1.4-0.3-1.5-1c0.1-0.1,0.2-0.2,0.3-0.3c0.1-0.1,0.2-0.1,0.3-0.2l2.1-0.3
	l12.2,0.3H168h3.4l0.3,0.9l-0.5,0.6c-0.2,0-0.6,0-1,0c-3.2,0.3-5.4,1-6.5,2c-1.1,1-1.7,3.1-1.7,6.4v0.5v44.9v0.6
	c0,3.5,0.7,5.7,2,6.7c0.5,0.4,2.9,1.1,7.2,2.1c0.3,0.2,0.5,0.3,0.5,0.5v0.5c0,0.5-0.3,0.9-0.8,0.9h-2.1l-12-0.5l-12.1,0.5h-1.5
	c-0.8,0-1.2-0.3-1.3-0.9l0.5-0.7l0.8-0.3c3.3-0.4,5.5-1.2,6.6-2.3c0.6-0.6,1.1-1.4,1.4-2.4c0.3-1,0.5-2.4,0.5-4.1V414h-36v21.8v0.6
	c0,3.6,0.7,5.8,2,6.8c0.2,0.2,2.5,0.8,7,2c0.3,0.2,0.5,0.3,0.6,0.5v0.5c0,0.5-0.3,0.9-0.9,0.9h-2.1l-11.7-0.5l-11.9,0.5h-1.5
	c-0.9,0-1.4-0.3-1.4-0.9l0.3-0.5l1-0.6c3.3-0.5,5.5-1.2,6.6-2.3c1.1-1.1,1.6-3.2,1.6-6.4V390.9z"/>
<path d="M204.5,430v1.4c0,3.7,0.4,6.6,1.3,8.6c0.9,2,3.1,3.4,6.6,4.1l3.8,0.5h4c3.1,0,5.9-0.4,8.4-1.1c2.5-0.7,4.6-2,6.2-3.9
	c0.7-0.8,1.4-2.4,2.2-4.6c0.8-2.2,1.4-3.4,1.8-3.5c0.5,0.5,0.7,0.9,0.8,1.3l0.2,3l-0.3,9.3c0,0.8-0.2,1.4-0.5,1.7
	c-0.3,0.3-1,0.4-2,0.4h-3.9l-21.7-0.5h-9.9h-9.8l-2.3,0.5H187h-1.7l-0.6-1l0.8-1l2.3-0.5c1.4-0.2,2.4-0.3,2.9-0.6
	c1.5-0.5,2.6-1.6,3.1-3.4c0.2-0.6,0.3-1.3,0.3-1.9c0.1-0.7,0.1-1.6,0.1-2.9V391c0-2.2-0.2-4-0.7-5.4c-0.5-1.4-1.6-2.3-3.4-2.8
	l-5.1-0.8l-0.6-0.7l0.9-1.1h2.2l7.7,0.5h6.3l21-0.5h6l4.7,0.5c0.8,0.2,1.3,0.8,1.5,1.7v0.7l-0.3,4.9l0.5,4.9l-0.1,1.1
	c-0.2,0.5-0.6,0.7-1.2,0.8l-0.5-0.2c-0.2-0.3-0.3-0.6-0.3-0.8c-0.3-0.8-0.5-1.6-0.7-2.4c-0.5-1.9-1.1-3.4-1.8-4.4
	c-1.4-1.6-3.4-2.7-5.9-3.4c-2.6-0.6-5.4-1-8.6-1h-7.3c-1.5,0-2.5,0.3-3.2,1c-0.5,0.7-0.8,1.7-0.8,3.1v1v23c3.1,0,5.6-0.2,7.6-0.6
	c2-0.4,3.6-1.2,5-2.3c1.3-1.2,2.3-2.4,2.7-3.7l1.5-5.9l0.8-0.5c0.7,0,1.1,0.4,1.2,1.2v1.5l-0.5,10.1v0.7l0.2,5.4l0.2,5.3l-0.1,2
	c-0.2,0.3-0.3,0.5-0.5,0.6h-0.5l-0.8-0.8l-1.4-4.5c-0.5-1.4-1.2-2.5-2.3-3.5c-1.1-1-2.4-1.6-4-1.9c-1.6-0.3-2.7-0.6-3.3-0.6
	c-0.6-0.1-1.7-0.1-3.1-0.1h-2.8V430z"/>
<path class="st0" d="M275.6,432.4v1.3c0,2,0.3,3.9,1,5.6s1.9,2.9,3.6,3.7c2.9,1.1,6.4,1.6,10.6,1.6c3.5,0,6.5-0.3,8.9-0.8
	c2.4-0.5,4.4-1.3,6-2.4c1.6-1,2.9-2.4,3.9-4.1l0.9-3.2c0.4-1.7,0.8-2.9,1.3-3.7l0.9-0.6c0.3,0.2,0.5,0.4,0.7,0.6
	c0.2,0.2,0.2,0.5,0.2,1l-0.2,13.5c0,1.6-0.6,2.4-1.7,2.4h-2h-5.8l-4.4-0.7H278h-11.6l-7.4,0.3h-2.1c-0.9,0-1.4-0.3-1.4-1
	c0.1-0.2,0.2-0.4,0.2-0.5c0.1-0.1,0.2-0.2,0.2-0.3l2.7-0.6l2.7-0.5c1.6-0.5,2.7-1.6,3.4-3.4c0.3-1,0.5-2,0.5-2.9
	c0-0.9,0.1-1.7,0.1-2.2v-45.3c0-3-0.5-5-1.5-6c-1-1-2.6-1.7-4.8-2c-2.2-0.3-3.4-0.8-3.5-1.5c0.2-0.2,0.3-0.3,0.5-0.3
	c0.2-0.1,0.4-0.1,0.5-0.2h2.1l12.5,0.3l0.8-0.3h9.1h2.9l1.1,0.2v0.5c-0.3,0.5-0.5,0.8-0.7,0.9h-1.1c-2.8,0-4.7,0.6-5.9,1.9
	c-1.1,1.3-1.7,3.4-1.7,6.4v0.5V432.4z"/>
<path d="M339.5,430v1.4c0,3.7,0.4,6.6,1.3,8.6c0.9,2,3.1,3.4,6.6,4.1l3.8,0.5h4c3.1,0,5.9-0.4,8.4-1.1c2.5-0.7,4.6-2,6.2-3.9
	c0.7-0.8,1.4-2.4,2.2-4.6c0.8-2.2,1.4-3.4,1.8-3.5c0.5,0.5,0.7,0.9,0.8,1.3l0.2,3l-0.3,9.3c0,0.8-0.2,1.4-0.5,1.7
	c-0.3,0.3-1,0.4-2,0.4h-3.9l-21.7-0.5h-9.9h-9.8l-2.3,0.5h-2.5h-1.7l-0.6-1l0.8-1l2.3-0.5c1.4-0.2,2.4-0.3,2.9-0.6
	c1.5-0.5,2.6-1.6,3.1-3.4c0.2-0.6,0.3-1.3,0.3-1.9c0.1-0.7,0.1-1.6,0.1-2.9V391c0-2.2-0.2-4-0.7-5.4s-1.6-2.3-3.4-2.8l-5.1-0.8
	l-0.6-0.7l0.9-1.1h2.2l7.7,0.5h6.3l21-0.5h6l4.7,0.5c0.8,0.2,1.3,0.8,1.5,1.7v0.7l-0.3,4.9l0.5,4.9l-0.1,1.1
	c-0.2,0.5-0.6,0.7-1.2,0.8l-0.5-0.2c-0.2-0.3-0.3-0.6-0.3-0.8c-0.3-0.8-0.5-1.6-0.7-2.4c-0.5-1.9-1.1-3.4-1.8-4.4
	c-1.4-1.6-3.4-2.7-5.9-3.4c-2.6-0.6-5.4-1-8.6-1h-7.3c-1.5,0-2.5,0.3-3.2,1c-0.5,0.7-0.8,1.7-0.8,3.1v1v23c3.1,0,5.6-0.2,7.6-0.6
	c2-0.4,3.6-1.2,5-2.3c1.3-1.2,2.3-2.4,2.7-3.7l1.5-5.9l0.8-0.5c0.7,0,1.1,0.4,1.2,1.2v1.5l-0.5,10.1v0.7l0.2,5.4l0.2,5.3l-0.1,2
	c-0.2,0.3-0.3,0.5-0.5,0.6h-0.5l-0.8-0.8l-1.4-4.5c-0.5-1.4-1.2-2.5-2.3-3.5c-1.1-1-2.4-1.6-4-1.9c-1.6-0.3-2.7-0.6-3.3-0.6
	c-0.6-0.1-1.7-0.1-3.1-0.1h-2.8V430z"/>
<path d="M423,436.4l9.8-24.2c2.3-5.3,4.3-10.6,6.1-15.9c1.5-4.8,2.3-7.9,2.3-9.4v-0.6c0-1.3-0.6-2.3-1.7-3c-1.1-0.7-2.4-1-3.9-1
	c-0.9,0-1.6-0.1-2.1-0.2c-0.5-0.1-0.7-0.4-0.8-0.9l0.2-0.5c0.2-0.5,0.8-0.7,1.9-0.7l3.2,0.3l4.6,0.1l10.4-0.5c1.1,0,1.7,0.4,1.9,1.1
	c-0.5,0.5-1,0.8-1.5,0.9l-3,0.6c-1.8,0.9-3.4,2.6-4.9,5.4c-0.7,1.2-1.7,3.5-2.9,6.9l-16.8,41.9l-2.5,6.2c-1.4,3.1-2.7,4.9-3.9,5.4
	c-0.6,0-1.3-0.5-2-1.4l-1.2-2.6l-19-49.7l-2.3-6.6c-1.2-2.7-2.6-4.4-4.4-5.1l-3.7-0.6c-0.9-0.2-1.5-0.3-1.7-0.6l-0.5-0.7
	c0-0.6,0.5-1,1.4-1.2h2.9l3.6,0.5l4.2,0.2l6.9-0.3l7.3-0.4l2.4,0.2l0.3,0.7l-1,0.9l-4.4,0.6c-0.9,0.2-1.7,0.7-2.2,1.5l-0.5,1.2
	l-0.1,1c0,1.3,0.5,3.3,1.4,6.1l2,5.1L423,436.4z"/>
<path d="M480.3,435.6v0.5c0,4.3,1.2,6.8,3.6,7.6l5.9,1.3l0.7,0.4l0.4,0.7v0.7l-0.5,0.5H488l-12.9-0.5l-12.6,0.5h-2.3l-0.7-0.5
	l-0.4-0.3c0.2-0.4,0.3-0.6,0.5-0.7c0.6-0.5,1.2-0.7,1.9-0.7c3.1,0,5.3-0.7,6.6-2c1.3-1.3,2-3.5,2-6.7V391c0-3.4-0.5-5.6-1.5-6.6
	c-0.8-1-3-1.7-6.6-2.2c-1,0-1.5-0.4-1.6-1.2c0.2-0.3,0.5-0.5,0.9-0.5l2.2-0.3l12.5,0.3h0.7h9c2.5,0,3.9,0,4.2,0v0.7
	c-0.3,0.5-0.5,0.8-0.7,0.9h-1.3c-2.7,0-4.6,0.7-5.8,2.1c-1.2,1.4-1.8,3.6-1.8,6.7V435.6z"/>
</svg>
